<?xml version="1.0" encoding="utf-8"?>
<!-- Generator: Adobe Illustrator 15.0.2, SVG Export Plug-In  -->
<!DOCTYPE svg [
	<!ENTITY ns_flows "http://ns.adobe.com/Flows/1.0/">
]>
<svg version="1.2" baseProfile="tiny"
	 xmlns="http://www.w3.org/2000/svg" xmlns:xlink="http://www.w3.org/1999/xlink" xmlns:a="http://ns.adobe.com/AdobeSVGViewerExtensions/3.0/"
	 x="0px" y="0px" width="799px" height="241px" viewBox="-0.5 -0.5 799 241" xml:space="preserve">
<defs>
</defs>
<path fill="#6CA715" d="M0,19.5C0,30.2,0.4,39,0.8,39c0.5,0,1.6-1.6,2.5-3.5c2.3-4.8,14.9-17.8,22.6-23.3c3.5-2.5,9.8-6.3,14-8.4
	L47.5,0H23.7H0V19.5z"/>
<path fill="#2D262C" d="M122,57.5V115h27h27V57.5V0h-27h-27V57.5z M166,85v15h-3h-3V85V70h3h3V85z"/>
<path fill="#2D262C" d="M183,57.5V115h27.5H238V57.5V0h-27.5H183V57.5z M200,85v15h-3.5H193V85V70h3.5h3.5V85z"/>
<path fill="#6CA715" d="M97.1,2.1C67.7,4.3,43.4,13.2,28.4,27.3c-9.4,8.8-15.3,16.4-20.9,27C1.6,65.4,0,71.5,0,82.4
	c0,6.8,0.5,10.2,2,13.3c1,2.4,2.3,4.3,2.7,4.2c0.4,0,3.1-3,5.8-6.6c6.5-8.6,28.9-31.2,38.5-39C59.8,45.7,69.3,39,79,33l8.5-5.2
	l-5,4.3C73.4,39.9,52.9,60.4,45.6,69C34.3,82.2,16,107.8,16,110.3c0,1.3,7.9,2.7,15.6,2.7c9.8,0,16.3-1.8,27.1-7.5
	c22-11.6,37.2-29.2,44.7-51.7c3.3-9.7,6.3-24,7-33.8c0.4-4.1,0.9-10.1,1.2-13.3c0.5-5.5,0.4-5.7-1.8-5.6
	C108.5,1.2,102.8,1.6,97.1,2.1z"/>
<path fill="#2D262C" d="M279,83.5V138h13.5H306v-23.1V91.8l7.5,0.4c5.8,0.3,7.9,0.8,9.5,2.3c1,1.1,6.2,10.1,11.5,20
	c5.3,9.9,10.9,19.2,12.5,20.7c3,2.8,3.2,2.8,16.5,2.8c7.4,0,13.5-0.3,13.5-0.6c0-0.4-5.7-11.301-12.7-24.3c-12-22-18-30.8-22.3-32.4
	c-1.1-0.4-0.8-1.1,1.6-3.1c1.801-1.4,9.101-12.2,16.4-24.1c7.3-11.8,13.6-21.5,13.9-21.5c0.3,0,10,16.3,21.399,36.2
	c15.2,26.3,20.7,36.7,20.3,38.3c-0.3,1.1-1.899,4-3.5,6.3c-3.199,4.3-7.399,6.2-13.8,6.2H395v9c0,10.9,0.2,11,12.7,11
	c6.399,0,9.899-0.6,12.8-1.9c8.1-3.699,10.7-8,34-57.5c18.4-39.2,22-46.3,23-44.8c10.3,15,29.6,46.8,29.2,48
	c-0.2,1-7.9,13.6-17,28.2L473.1,137.5l13.5,0.3c7.801,0.101,14.101-0.2,14.801-0.7c0.6-0.6,6.1-9.6,12.1-20
	C519.6,106.6,524.7,98,525,98s4.9,7.9,10.4,17.5c14,24.9,11,22.5,28.199,22.5c7.9,0,14.4-0.4,14.4-0.8c0-0.4-7.6-13.2-17-28.5
	L544.1,81l17-25.7L578,29.5l-13.7-0.3c-12-0.2-13.899,0-15.399,1.5c-0.9,1-6.2,9.6-11.7,19.1l-10,17.3L517,49.8
	c-5.7-9.5-10.9-18.1-11.8-19.1c-1.4-1.5-4-1.7-26.7-1.7c-23.2,0-25.4,0.2-27.6,1.9c-1.5,1.2-6.101,10.1-12.4,24.5
	C433,67.8,428.3,78,428,77.9c-0.3,0-5.4-10.2-11.5-22.6c-6.3-12.9-12-23.3-13.4-24.4c-2.199-1.7-4.399-1.9-28-1.9
	c-23.199,0-25.899,0.2-28.6,1.9c-2,1.2-6.6,7.8-14,20.1c-6,10-12,19.1-13.4,20.1c-1.6,1.3-4,1.9-7.699,1.9H306V51V29h-13.5H279V83.5
	z"/>
<path fill="#2D262C" d="M587,83.5V138h13h13v-23V92h21.5H656v23v23h13.5H683V83.5V29h-13.5H656v22.5V74h-21.5H613V51.5V29h-13h-13
	V83.5z"/>
<path fill="#2D262C" d="M703,83.5V138h11.5c11.3,0,11.5,0,14.9-3c3-2.7,14.1-20.9,36.3-59.4l6.3-11v36.7V138h13h13V83.5V29h-11.2
	c-12.6,0-15,0.9-19.2,7.1C764.1,41.3,730,99.8,729.2,102c-0.4,1-0.601-15-0.4-35.6l0.3-37.4H716h-13V83.5z"/>
<path fill="#6CA715" d="M197,123.5c-14.3,3.1-36.3,17-47.8,30.1c-14.3,16.5-23.5,43.601-25.7,76.2l-0.8,10.2h8.4
	c24.6-0.1,53.7-8,70.7-19.4c16.4-10.899,33-33.6,37.7-51.699c2.2-8.4,1.7-23.7-1-29.2c-1-2-2.1-3.7-2.4-3.7
	c-0.3,0.1-2.6,2.8-5.1,6.2c-6.6,9.1-33.9,36.3-45.5,45.399c-9.8,7.7-27.5,19.9-32.5,22.301c-1.4,0.699,0.2-1.101,3.5-4
	c11.1-9.7,33-32.301,41.9-43.4c4.8-6.1,12.6-16.8,17.4-23.8c9.4-14.2,9.4-13.8,0.9-15.7C210.5,121.7,205,121.8,197,123.5z"/>
<path fill="#2D262C" d="M0,150.5V178h58h58v-27.5V123H58H0V150.5z M73,150.5v3.5H58H43v-3.5V147h15h15V150.5z"/>
<path fill="#2D262C" d="M293.5,157.5c-9.9,3.5-15.9,15.1-13.5,26.3c2.5,11.2,10.3,17.2,22.7,17.2c8.7,0,14.399-2.7,18.8-8.9
	c2.6-3.699,3-5.3,3.3-12c0.5-9.1-1.3-13.699-7.2-18.899C311.7,156.1,301.8,154.6,293.5,157.5z M310.4,169
	c5.399,5.3,4.5,17.3-1.801,21.1C300.2,195.2,291,189.4,291,179C291,166.9,302.3,161.1,310.4,169z"/>
<path fill="#2D262C" d="M639.4,158.4c-17,7.899-16.5,33.8,0.8,41c5.1,2.199,15.3,2,20.3-0.301c11.1-5,15.7-18.8,10.1-30.6
	c-2.699-5.9-4.6-7.7-10.6-10.4C653.7,155.2,645.9,155.4,639.4,158.4z M657,167.9c5.6,4.1,6.1,14.699,1,20.5
	c-2.5,2.699-3.5,3.1-7.8,3.1c-3.9,0-5.601-0.5-7.601-2.4c-6.8-6.399-5.3-19.1,2.7-22.699C649.1,164.7,653.5,165.3,657,167.9z"/>
<path fill="#2D262C" d="M338,161v4h6h6v18v18h5.5h5.5v-18v-18h6h6v-4v-4h-17.5H338V161z"/>
<path fill="#2D262C" d="M415,179v22h5.5h5.5v-18v-18h7.5h7.5v18v18h6h6v-22v-22h-19h-19V179z"/>
<path fill="#2D262C" d="M472,179v22h5.5h5.5v-7.5V186h5.8c10.601,0,16.4-5,16.601-14.3c0-6.2-1.801-9.8-6.7-12.7
	c-2.7-1.7-5.101-2-14.9-2H472V179z M491.8,166.6c1.5,1,2.2,2.5,2.2,4.9c0,4.1-2.9,6.5-7.7,6.5H483v-6.5V165h3.3
	C488.1,165,490.6,165.7,491.8,166.6z"/>
<path fill="#2D262C" d="M522,179v22h4.9c5.899,0,6.399-0.5,15.699-16.8l5.9-10.3l0.3,13.6l0.3,13.5h5.4h5.5v-22v-22.1l-5.7,0.3
	l-5.8,0.3l-7.5,12.9l-7.5,13l-0.3-13.2l-0.3-13.2h-5.4H522V179z"/>
<path fill="#2D262C" d="M580,179v22h5.5h5.5v-7.5V186h5.5c11.2,0,16.5-4.8,16.5-15.1c0-4.2-0.5-6.301-2.1-8.301
	c-3.7-4.699-6.801-5.6-19.4-5.6H580V179z M599.8,166.6c1.5,1,2.2,2.5,2.2,4.9c0,4.1-2.9,6.5-7.7,6.5H591v-6.5V165h3.3
	C596.1,165,598.6,165.7,599.8,166.6z"/>
<path fill="#2D262C" d="M696.6,160.1c-0.3,1.7-0.6,5.2-0.6,7.801c0,6.6-1.8,17-3.7,20.8c-1.2,2.6-2.1,3.3-4.399,3.3H685v9.5v9.5h3.8
	c4.8,0,6.2-1.4,6.2-6.2V201h14h14v5.1v5l4.8-0.3l4.7-0.3l0.3-9.3l0.3-9.2H730h-3v-17.5V157h-14.9h-14.8L696.6,160.1z M716,178.5V192
	h-7h-6.9l1.5-4.2c0.801-2.3,2-8.399,2.601-13.5l1.2-9.3h4.3h4.3V178.5z"/>
<path fill="#2D262C" d="M750,179v22h9.6c16.5,0,22.4-3.4,23.2-13.2c0.3-4.399,0-5.8-1.899-8.2c-3-3.8-7.601-5.6-14.4-5.6H761v-8.5
	V157h-5.5H750V179z M770.5,184c2.1,1.8,1.8,5.7-0.4,7c-1.1,0.5-3.6,1-5.5,1H761v-5.1v-5.2l4,0.6C767.3,182.6,769.7,183.4,770.5,184z
	"/>
<path fill="#2D262C" d="M787,179v22h5.5h5.5v-22v-22h-5.5H787V179z"/>
<path fill="#2D262C" d="M0,212v27h58h58v-27v-27H58H0V212z M73,212v3H58H43v-3v-3h15h15V212z"/>
<path fill="#6CA715" d="M236,201.8c-4.7,7.601-21,23.8-28.5,28.2c-3.2,1.9-9.5,4.7-14,6.2l-8,2.8h27.3H240v-21.5
	c0-11.8-0.1-21.5-0.2-21.5C239.6,196,237.9,198.6,236,201.8z"/>
</svg>
